<?xml version="1.0" encoding="iso-8859-1"?>
<!-- Generator: Adobe Illustrator 19.0.0, SVG Export Plug-In . SVG Version: 6.00 Build 0)  -->
<svg version="1.1" id="Capa_1" xmlns="http://www.w3.org/2000/svg" xmlns:xlink="http://www.w3.org/1999/xlink" x="0px" y="0px"
	 viewBox="0 0 490 490" style="enable-background:new 0 0 490 490;" xml:space="preserve">
<g id="line_39_">
	<path d="M255.581,173.154v-55.646c8.927,3.997,14.455,11.576,16.568,22.77l34.928-4.701c-2.389-14.241-7.917-25.587-16.568-34.086
		c-8.652-8.498-20.289-13.643-34.928-15.45V71.969h-20.013v14.087c-15.833,1.623-28.512,7.718-38.036,18.283
		c-9.524,10.566-14.286,23.643-14.286,39.215c0,15.358,4.196,28.42,12.618,39.2c8.422,10.78,21.652,18.819,39.705,24.117v59.627
		c-4.976-2.465-9.478-6.447-13.536-11.944c-4.058-5.497-6.814-12.051-8.284-19.631l-36.046,3.981
		c2.771,18.697,9.126,33.152,19.049,43.396c9.938,10.244,22.877,16.369,38.802,18.36v25.893h20.013v-26.613
		c17.962-2.649,31.973-9.861,42.048-21.621c10.076-11.76,15.098-26.23,15.098-43.396c0-15.374-3.997-27.961-12.005-37.791
		C292.729,187.303,277.662,179.309,255.581,173.154z M235.567,166.309c-6.002-2.649-10.458-6.14-13.398-10.458
		c-2.94-4.318-4.41-8.988-4.41-14.026c0-5.482,1.592-10.535,4.823-15.068c3.216-4.563,7.534-7.779,12.985-9.677V166.309z
		 M272.44,258.598c-4.334,5.267-9.938,8.575-16.859,9.892v-55.492c8.284,2.465,14.256,6.018,17.885,10.596
		c3.629,4.609,5.451,10.076,5.451,16.43C278.917,247.144,276.758,253.33,272.44,258.598z"/>
	<path d="M0,386.641h229.687v57.422H82.305v30.625h325.391v-30.625H260.312v-57.422H490V15.312H0V386.641z M30.625,45.938h428.75
		v310.078H30.625V45.938z"/>
</g>
<g>
</g>
<g>
</g>
<g>
</g>
<g>
</g>
<g>
</g>
<g>
</g>
<g>
</g>
<g>
</g>
<g>
</g>
<g>
</g>
<g>
</g>
<g>
</g>
<g>
</g>
<g>
</g>
<g>
</g>
</svg>
